<?xml version="1.0" encoding="UTF-8" standalone="no"?><!-- Generator: Gravit.io --><svg xmlns="http://www.w3.org/2000/svg" xmlns:xlink="http://www.w3.org/1999/xlink" style="isolation:isolate" viewBox="0 0 28 31" width="28pt" height="31pt"><defs><clipPath id="_clipPath_qSHDT16BbjfLuZ8MMHTpr8O6L3OdbsOS"><rect width="28" height="31"/></clipPath></defs><g clip-path="url(#_clipPath_qSHDT16BbjfLuZ8MMHTpr8O6L3OdbsOS)"><circle vector-effect="non-scaling-stroke" cx="14.000000000000002" cy="15.5" r="13.250000000000004" fill="none" stroke-width="1.167" stroke="rgb(255,255,255)" stroke-linejoin="round" stroke-linecap="round" stroke-miterlimit="4"/><path d="M 14 6 L 14 6 C 14.552 6 15 6.448 15 7 L 15 24 C 15 24.552 14.552 25 14 25 L 14 25 C 13.448 25 13 24.552 13 24 L 13 7 C 13 6.448 13.448 6 14 6 Z" style="stroke:none;fill:#FFFFFF;stroke-miterlimit:10;"/><path d="M 23.5 15.5 L 23.5 15.5 C 23.5 16.052 23.052 16.5 22.5 16.5 L 5.5 16.5 C 4.948 16.5 4.5 16.052 4.5 15.5 L 4.5 15.5 C 4.5 14.948 4.948 14.5 5.5 14.5 L 22.5 14.5 C 23.052 14.5 23.5 14.948 23.5 15.5 Z" style="stroke:none;fill:#FFFFFF;stroke-miterlimit:10;"/></g></svg>