<?xml version="1.0" encoding="UTF-8" standalone="no"?><!-- Generator: Gravit.io --><svg xmlns="http://www.w3.org/2000/svg" xmlns:xlink="http://www.w3.org/1999/xlink" style="isolation:isolate" viewBox="0 0 50 50" width="50pt" height="50pt"><defs><clipPath id="_clipPath_jRfvgrdw5h5HNDlCrTrIipPqTBtx1I5h"><rect width="50" height="50"/></clipPath></defs><g clip-path="url(#_clipPath_jRfvgrdw5h5HNDlCrTrIipPqTBtx1I5h)"><mask id="_mask_WABAPlNgzzDgc9BfK5S7R5NNPpSj7FpB" x="-200%" y="-200%" width="400%" height="400%"><rect x="-200%" y="-200%" width="400%" height="400%" style="fill:white;"/><path d=" M 41.5 25 C 41.5 22.15 43.45 19.9 46 19.15 L 46 16 C 46 14.35 44.65 13 43 13 L 7 13 C 5.35 13 4 14.35 4 16 L 4 19.15 C 6.55 19.75 8.5 22.15 8.5 25 C 8.5 27.85 6.55 30.1 4 30.85 L 4 34 C 4 35.65 5.35 37 7 37 L 43 37 C 44.65 37 46 35.65 46 34 L 46 30.85 C 43.45 30.1 41.5 27.85 41.5 25 Z " fill="black" stroke="none"/></mask><path d=" M 41.5 25 C 41.5 22.15 43.45 19.9 46 19.15 L 46 16 C 46 14.35 44.65 13 43 13 L 7 13 C 5.35 13 4 14.35 4 16 L 4 19.15 C 6.55 19.75 8.5 22.15 8.5 25 C 8.5 27.85 6.55 30.1 4 30.85 L 4 34 C 4 35.65 5.35 37 7 37 L 43 37 C 44.65 37 46 35.65 46 34 L 46 30.85 C 43.45 30.1 41.5 27.85 41.5 25 Z " fill="none" mask="url(#_mask_WABAPlNgzzDgc9BfK5S7R5NNPpSj7FpB)" vector-effect="non-scaling-stroke" stroke-width="4" stroke="rgb(255,255,255)" stroke-linejoin="round" stroke-linecap="round" stroke-miterlimit="10"/><path d=" M 41.5 25 C 41.5 22.15 43.45 19.9 46 19.15 L 46 16 C 46 14.35 44.65 13 43 13 L 7 13 C 5.35 13 4 14.35 4 16 L 4 19.15 C 6.55 19.75 8.5 22.15 8.5 25 C 8.5 27.85 6.55 30.1 4 30.85 L 4 34 C 4 35.65 5.35 37 7 37 L 43 37 C 44.65 37 46 35.65 46 34 L 46 30.85 C 43.45 30.1 41.5 27.85 41.5 25 Z " fill="none"/><mask id="_mask_plEqKyd70rkRZep7gAgxJUxrNqmVZhue" x="-200%" y="-200%" width="400%" height="400%"><rect x="-200%" y="-200%" width="400%" height="400%" style="fill:white;"/><path d=" M 25 17.35 L 27.25 22.15 L 32.5 22.9 L 28.75 26.5 L 29.65 31.6 L 25 29.2 L 20.35 31.6 L 21.25 26.5 L 17.5 22.9 L 22.75 22.15 L 25 17.35 Z " fill="black" stroke="none"/></mask><path d=" M 25 17.35 L 27.25 22.15 L 32.5 22.9 L 28.75 26.5 L 29.65 31.6 L 25 29.2 L 20.35 31.6 L 21.25 26.5 L 17.5 22.9 L 22.75 22.15 L 25 17.35 Z " fill="none" mask="url(#_mask_plEqKyd70rkRZep7gAgxJUxrNqmVZhue)" vector-effect="non-scaling-stroke" stroke-width="4" stroke="rgb(255,255,255)" stroke-linejoin="round" stroke-linecap="round" stroke-miterlimit="10"/><path d=" M 25 17.35 L 27.25 22.15 L 32.5 22.9 L 28.75 26.5 L 29.65 31.6 L 25 29.2 L 20.35 31.6 L 21.25 26.5 L 17.5 22.9 L 22.75 22.15 L 25 17.35 Z " fill="none"/></g></svg>