<?xml version="1.0" encoding="UTF-8" standalone="no"?><!-- Generator: Gravit.io --><svg xmlns="http://www.w3.org/2000/svg" xmlns:xlink="http://www.w3.org/1999/xlink" style="isolation:isolate" viewBox="0 0 30 34" width="30pt" height="34pt"><defs><clipPath id="_clipPath_rPLv5FWrX4KYygBETob8nDO3BwNi38OL"><rect width="30" height="34"/></clipPath></defs><g clip-path="url(#_clipPath_rPLv5FWrX4KYygBETob8nDO3BwNi38OL)"><circle vector-effect="non-scaling-stroke" cx="7.499999999999998" cy="7.4999999999999964" r="5" fill="none" stroke-width="2" stroke="rgb(255,255,255)" stroke-linejoin="round" stroke-linecap="round" stroke-miterlimit="10"/><circle vector-effect="non-scaling-stroke" cx="17.5" cy="7.4999999999999964" r="5" fill="none" stroke-width="2" stroke="rgb(255,255,255)" stroke-linejoin="round" stroke-linecap="round" stroke-miterlimit="10"/><mask id="_mask_AtlXFr9qGJy2cDSq3EiiHleG1qfdxstZ" x="-200%" y="-200%" width="400%" height="400%"><rect x="-200%" y="-200%" width="400%" height="400%" style="fill:white;"/><path d=" M 19.5 25.5 L 5.5 25.5 C 4.4 25.5 3.5 24.6 3.5 23.5 L 3.5 17.5 C 3.5 16.4 4.4 15.5 5.5 15.5 L 19.5 15.5 C 20.6 15.5 21.5 16.4 21.5 17.5 L 21.5 23.5 C 21.5 24.6 20.6 25.5 19.5 25.5 Z " fill="black" stroke="none"/></mask><path d=" M 19.5 25.5 L 5.5 25.5 C 4.4 25.5 3.5 24.6 3.5 23.5 L 3.5 17.5 C 3.5 16.4 4.4 15.5 5.5 15.5 L 19.5 15.5 C 20.6 15.5 21.5 16.4 21.5 17.5 L 21.5 23.5 C 21.5 24.6 20.6 25.5 19.5 25.5 Z " fill="none" mask="url(#_mask_AtlXFr9qGJy2cDSq3EiiHleG1qfdxstZ)" vector-effect="non-scaling-stroke" stroke-width="4" stroke="rgb(255,255,255)" stroke-linejoin="round" stroke-linecap="round" stroke-miterlimit="10"/><path d=" M 19.5 25.5 L 5.5 25.5 C 4.4 25.5 3.5 24.6 3.5 23.5 L 3.5 17.5 C 3.5 16.4 4.4 15.5 5.5 15.5 L 19.5 15.5 C 20.6 15.5 21.5 16.4 21.5 17.5 L 21.5 23.5 C 21.5 24.6 20.6 25.5 19.5 25.5 Z " fill="none"/><mask id="_mask_BaBiDFqKzhBR6VhaqXrjmM5XCa4SUHbz" x="-200%" y="-200%" width="400%" height="400%"><rect x="-200%" y="-200%" width="400%" height="400%" style="fill:white;"/><path d=" M 27.5 25.5 L 21.5 22.5 L 21.5 18.5 L 27.5 15.5 L 27.5 25.5 Z " fill="black" stroke="none"/></mask><path d=" M 27.5 25.5 L 21.5 22.5 L 21.5 18.5 L 27.5 15.5 L 27.5 25.5 Z " fill="none" mask="url(#_mask_BaBiDFqKzhBR6VhaqXrjmM5XCa4SUHbz)" vector-effect="non-scaling-stroke" stroke-width="4" stroke="rgb(255,255,255)" stroke-linejoin="round" stroke-linecap="round" stroke-miterlimit="10"/><path d=" M 27.5 25.5 L 21.5 22.5 L 21.5 18.5 L 27.5 15.5 L 27.5 25.5 Z " fill="none"/><mask id="_mask_Vew2lFVQkdU364qME3Ba9HdcAnMDkEvc" x="-200%" y="-200%" width="400%" height="400%"><rect x="-200%" y="-200%" width="400%" height="400%" style="fill:white;"/><path d=" M 8.5 31.5 L 12.5 25.5 L 16.5 31.5" fill="black" stroke="none"/></mask><path d=" M 8.5 31.5 L 12.5 25.5 L 16.5 31.5" fill="none" mask="url(#_mask_Vew2lFVQkdU364qME3Ba9HdcAnMDkEvc)" vector-effect="non-scaling-stroke" stroke-width="4" stroke="rgb(255,255,255)" stroke-linejoin="round" stroke-linecap="round" stroke-miterlimit="10"/><path d=" M 8.5 31.5 L 12.5 25.5 L 16.5 31.5" fill="none"/><circle vector-effect="non-scaling-stroke" cx="7.5" cy="7.5000000000000036" r="1" fill="none" stroke-width="2" stroke="rgb(255,255,255)" stroke-linejoin="round" stroke-linecap="round" stroke-miterlimit="10"/><circle vector-effect="non-scaling-stroke" cx="17.5" cy="7.5000000000000036" r="1" fill="none" stroke-width="2" stroke="rgb(255,255,255)" stroke-linejoin="round" stroke-linecap="round" stroke-miterlimit="10"/></g></svg>