<?xml version="1.0" encoding="UTF-8" standalone="no"?><!-- Generator: Gravit.io --><svg xmlns="http://www.w3.org/2000/svg" xmlns:xlink="http://www.w3.org/1999/xlink" style="isolation:isolate" viewBox="0 0 50 50" width="50pt" height="50pt"><defs><clipPath id="_clipPath_1qhlJopFnkfpSmHtDrdn4ZRFp1nwdMNv"><rect width="50" height="50"/></clipPath></defs><g clip-path="url(#_clipPath_1qhlJopFnkfpSmHtDrdn4ZRFp1nwdMNv)"><mask id="_mask_zFqMiVkjp6je02OHcmMfn08wqeu0ol49" x="-200%" y="-200%" width="400%" height="400%"><rect x="-200%" y="-200%" width="400%" height="400%" style="fill:white;"/><path d=" M 38.667 23.633 L 11.333 23.633 C 9.83 23.633 8.6 22.403 8.6 20.9 L 8.6 20.9 C 8.6 19.397 9.83 18.167 11.333 18.167 L 38.667 18.167 C 40.17 18.167 41.4 19.397 41.4 20.9 L 41.4 20.9 C 41.4 22.403 40.17 23.633 38.667 23.633 Z " fill="black" stroke="none"/></mask><path d=" M 38.667 23.633 L 11.333 23.633 C 9.83 23.633 8.6 22.403 8.6 20.9 L 8.6 20.9 C 8.6 19.397 9.83 18.167 11.333 18.167 L 38.667 18.167 C 40.17 18.167 41.4 19.397 41.4 20.9 L 41.4 20.9 C 41.4 22.403 40.17 23.633 38.667 23.633 Z " fill="none" mask="url(#_mask_zFqMiVkjp6je02OHcmMfn08wqeu0ol49)" vector-effect="non-scaling-stroke" stroke-width="4" stroke="rgb(255,255,255)" stroke-linejoin="round" stroke-linecap="round" stroke-miterlimit="10"/><path d=" M 38.667 23.633 L 11.333 23.633 C 9.83 23.633 8.6 22.403 8.6 20.9 L 8.6 20.9 C 8.6 19.397 9.83 18.167 11.333 18.167 L 38.667 18.167 C 40.17 18.167 41.4 19.397 41.4 20.9 L 41.4 20.9 C 41.4 22.403 40.17 23.633 38.667 23.633 Z " fill="none"/><mask id="_mask_xm1geVPU047MsiurbbkeoGCIaIBrCocp" x="-200%" y="-200%" width="400%" height="400%"><rect x="-200%" y="-200%" width="400%" height="400%" style="fill:white;"/><path d=" M 35.933 45.5 L 14.067 45.5 L 11.333 23.633 L 38.667 23.633 L 35.933 45.5 Z " fill="black" stroke="none"/></mask><path d=" M 35.933 45.5 L 14.067 45.5 L 11.333 23.633 L 38.667 23.633 L 35.933 45.5 Z " fill="none" mask="url(#_mask_xm1geVPU047MsiurbbkeoGCIaIBrCocp)" vector-effect="non-scaling-stroke" stroke-width="4" stroke="rgb(255,255,255)" stroke-linejoin="round" stroke-linecap="round" stroke-miterlimit="10"/><path d=" M 35.933 45.5 L 14.067 45.5 L 11.333 23.633 L 38.667 23.633 L 35.933 45.5 Z " fill="none"/><mask id="_mask_qUkipNsmfJoHVuu5mpBZlQVV3dj7ngjd" x="-200%" y="-200%" width="400%" height="400%"><rect x="-200%" y="-200%" width="400%" height="400%" style="fill:white;"/><line x1="30.467" y1="23.633" x2="29.1" y2="45.5" fill="black" stroke="none"/></mask><line x1="30.467" y1="23.633" x2="29.1" y2="45.5" mask="url(#_mask_qUkipNsmfJoHVuu5mpBZlQVV3dj7ngjd)" vector-effect="non-scaling-stroke" stroke-width="4" stroke="rgb(255,255,255)" stroke-linejoin="round" stroke-linecap="round" stroke-miterlimit="10"/><mask id="_mask_TTD4QPaqo5060yfvd8OxxXXpLbA2omda" x="-200%" y="-200%" width="400%" height="400%"><rect x="-200%" y="-200%" width="400%" height="400%" style="fill:white;"/><line x1="20.9" y1="45.5" x2="19.533" y2="23.633" fill="black" stroke="none"/></mask><line x1="20.9" y1="45.5" x2="19.533" y2="23.633" mask="url(#_mask_TTD4QPaqo5060yfvd8OxxXXpLbA2omda)" vector-effect="non-scaling-stroke" stroke-width="4" stroke="rgb(255,255,255)" stroke-linejoin="round" stroke-linecap="round" stroke-miterlimit="10"/><mask id="_mask_htio6rOoSZ3QwAAo1aXVmWBPs5jaa4ya" x="-200%" y="-200%" width="400%" height="400%"><rect x="-200%" y="-200%" width="400%" height="400%" style="fill:white;"/><path d=" M 38.393 18.167 C 38.53 17.757 38.667 17.21 38.667 16.8 C 38.667 14.887 37.437 13.383 35.66 12.837 C 35.797 12.427 35.933 11.88 35.933 11.333 C 35.933 9.01 34.157 7.233 31.833 7.233 C 30.74 7.233 29.783 7.643 29.1 8.327 C 28.963 6.14 27.187 4.5 25 4.5 C 22.813 4.5 21.037 6.14 20.9 8.327 C 20.217 7.643 19.26 7.233 18.167 7.233 C 15.843 7.233 14.067 9.01 14.067 11.333 C 14.067 11.88 14.203 12.427 14.34 12.837 C 12.563 13.383 11.333 14.887 11.333 16.8 C 11.333 17.347 11.47 17.757 11.607 18.167" fill="black" stroke="none"/></mask><path d=" M 38.393 18.167 C 38.53 17.757 38.667 17.21 38.667 16.8 C 38.667 14.887 37.437 13.383 35.66 12.837 C 35.797 12.427 35.933 11.88 35.933 11.333 C 35.933 9.01 34.157 7.233 31.833 7.233 C 30.74 7.233 29.783 7.643 29.1 8.327 C 28.963 6.14 27.187 4.5 25 4.5 C 22.813 4.5 21.037 6.14 20.9 8.327 C 20.217 7.643 19.26 7.233 18.167 7.233 C 15.843 7.233 14.067 9.01 14.067 11.333 C 14.067 11.88 14.203 12.427 14.34 12.837 C 12.563 13.383 11.333 14.887 11.333 16.8 C 11.333 17.347 11.47 17.757 11.607 18.167" fill="none" mask="url(#_mask_htio6rOoSZ3QwAAo1aXVmWBPs5jaa4ya)" vector-effect="non-scaling-stroke" stroke-width="4" stroke="rgb(255,255,255)" stroke-linejoin="round" stroke-linecap="round" stroke-miterlimit="10"/><path d=" M 38.393 18.167 C 38.53 17.757 38.667 17.21 38.667 16.8 C 38.667 14.887 37.437 13.383 35.66 12.837 C 35.797 12.427 35.933 11.88 35.933 11.333 C 35.933 9.01 34.157 7.233 31.833 7.233 C 30.74 7.233 29.783 7.643 29.1 8.327 C 28.963 6.14 27.187 4.5 25 4.5 C 22.813 4.5 21.037 6.14 20.9 8.327 C 20.217 7.643 19.26 7.233 18.167 7.233 C 15.843 7.233 14.067 9.01 14.067 11.333 C 14.067 11.88 14.203 12.427 14.34 12.837 C 12.563 13.383 11.333 14.887 11.333 16.8 C 11.333 17.347 11.47 17.757 11.607 18.167" fill="none"/></g></svg>