<?xml version="1.0" encoding="UTF-8" standalone="no"?><!-- Generator: Gravit.io --><svg xmlns="http://www.w3.org/2000/svg" xmlns:xlink="http://www.w3.org/1999/xlink" style="isolation:isolate" viewBox="0 0 446 101" width="446pt" height="101pt"><defs><clipPath id="_clipPath_0QDjW3wEPHUuYBQ7TsjirtpJJnDu9ThC"><rect width="446" height="101"/></clipPath></defs><g clip-path="url(#_clipPath_0QDjW3wEPHUuYBQ7TsjirtpJJnDu9ThC)"><g><g><path d=" M 116.611 48.927 L 116.611 54.2 C 116.611 54.252 116.59 54.301 116.553 54.337 C 116.516 54.373 116.467 54.392 116.415 54.391 L 113.02 54.391 C 112.914 54.391 112.828 54.306 112.825 54.2 L 112.825 48.927 L 104.005 48.927 C 103.897 48.927 103.809 48.84 103.809 48.732 L 103.809 45.642 C 103.809 45.557 103.819 45.472 103.838 45.389 L 109.521 21.274 C 109.543 21.187 109.622 21.126 109.712 21.126 L 112.959 21.126 C 113.018 21.126 113.074 21.153 113.111 21.199 C 113.148 21.246 113.162 21.307 113.149 21.364 L 107.676 45.518 L 112.825 45.518 L 112.825 38.095 C 112.825 37.987 112.913 37.899 113.02 37.899 L 116.415 37.899 C 116.523 37.899 116.611 37.987 116.611 38.095 L 116.611 45.518 L 119.333 45.518 C 119.441 45.518 119.529 45.606 119.529 45.714 L 119.529 48.736 C 119.529 48.844 119.441 48.932 119.333 48.932 L 116.611 48.927 Z " fill="rgb(255,255,255)"/><path d=" M 121.588 54.2 L 121.588 51.239 C 121.589 51.075 121.625 50.912 121.693 50.763 L 129.717 33.746 C 130.708 31.821 131.222 29.685 131.214 27.52 C 131.214 25.279 129.951 24.182 128.354 24.182 C 126.756 24.182 125.345 25.303 125.345 27.52 L 125.345 29.05 C 125.345 29.102 125.325 29.152 125.288 29.188 C 125.251 29.225 125.202 29.246 125.15 29.246 L 121.87 29.246 C 121.762 29.246 121.674 29.158 121.674 29.05 L 121.674 27.62 C 121.674 25.188 122.375 23.696 123.543 22.528 C 124.869 21.356 126.585 20.722 128.354 20.749 C 130.07 20.689 131.743 21.291 133.026 22.432 C 134.194 23.553 134.99 25.188 134.99 27.677 C 134.99 30.166 134.104 33.003 133.083 35.201 L 125.655 50.992 L 134.805 50.992 C 134.856 50.992 134.906 51.012 134.943 51.049 C 134.979 51.085 135 51.135 135 51.187 L 135 54.21 C 135 54.261 134.979 54.31 134.942 54.346 C 134.906 54.382 134.856 54.402 134.805 54.4 L 121.784 54.4 C 121.731 54.402 121.679 54.381 121.642 54.343 C 121.605 54.305 121.586 54.253 121.588 54.2 Z " fill="rgb(255,255,255)"/><path d=" M 0.977 89.782 L 0.977 21.126 C 0.976 21.038 1.01 20.953 1.072 20.89 C 1.134 20.828 1.218 20.792 1.306 20.792 L 12.821 20.792 C 12.909 20.792 12.994 20.827 13.057 20.89 C 13.119 20.953 13.154 21.038 13.154 21.126 L 13.154 89.782 C 13.154 89.967 13.005 90.116 12.821 90.116 L 1.306 90.116 C 1.218 90.116 1.134 90.081 1.072 90.018 C 1.01 89.955 0.976 89.87 0.977 89.782 Z " fill="rgb(255,255,255)"/><path d=" M 20.087 41.051 C 20.073 38.772 20.232 36.496 20.563 34.242 C 21.247 29.291 24.176 24.931 28.502 22.428 Q 32.502 20.044 38.233 20.044 Q 43.964 20.044 47.964 22.428 C 52.29 24.931 55.219 29.291 55.902 34.242 C 56.232 36.497 56.391 38.772 56.379 41.051 L 56.379 69.834 C 56.391 72.11 56.232 74.385 55.902 76.637 C 55.216 81.581 52.287 85.932 47.964 88.428 Q 43.959 90.812 38.233 90.812 Q 32.507 90.812 28.502 88.428 C 24.172 85.926 21.242 81.563 20.563 76.609 C 20.232 74.356 20.072 72.082 20.087 69.805 L 20.087 41.051 Z  M 32.264 71.741 Q 32.264 75.202 33.875 76.933 C 35.01 78.112 36.599 78.743 38.233 78.664 C 39.867 78.743 41.456 78.112 42.591 76.933 Q 44.202 75.202 44.202 71.741 L 44.202 39.139 Q 44.202 35.677 42.591 33.947 C 41.456 32.767 39.867 32.136 38.233 32.216 C 36.599 32.136 35.01 32.767 33.875 33.947 Q 32.268 35.677 32.264 39.139 L 32.264 71.741 Z " fill="rgb(255,255,255)"/><path d=" M 101.301 21.159 L 85.692 89.859 C 85.658 90.008 85.526 90.115 85.372 90.116 L 75.155 90.116 C 75.001 90.114 74.867 90.008 74.83 89.859 L 59.225 21.159 C 59.204 21.061 59.228 20.958 59.291 20.879 C 59.354 20.801 59.449 20.755 59.55 20.754 L 71.507 20.754 C 71.668 20.754 71.806 20.868 71.836 21.026 L 80.261 65.209 L 88.69 21.026 C 88.72 20.87 88.856 20.756 89.015 20.754 L 101.001 20.754 C 101.097 20.762 101.186 20.81 101.244 20.888 C 101.301 20.966 101.322 21.065 101.301 21.159 Z " fill="rgb(255,255,255)"/><circle vector-effect="non-scaling-stroke" cx="7.065866148196149" cy="7.065866148196135" r="7.065866148196143" fill="rgb(255,255,255)"/></g><path d=" M 183.601 40.077 L 183.601 40.077 L 190.141 40.077 L 190.141 40.077 Q 191.853 40.077 191.853 41.634 L 191.853 41.634 L 191.853 77.444 L 191.853 77.444 Q 191.853 83.516 188.467 86.825 L 188.467 86.825 L 188.467 86.825 Q 185.081 90.134 179.008 90.134 L 179.008 90.134 L 170.445 90.134 L 170.445 90.134 Q 164.295 90.134 160.947 86.864 L 160.947 86.864 L 160.947 86.864 Q 157.6 83.594 157.6 77.444 L 157.6 77.444 L 157.6 41.712 L 157.6 41.712 Q 157.6 40.077 159.235 40.077 L 159.235 40.077 L 165.852 40.077 L 165.852 40.077 Q 167.487 40.077 167.487 41.712 L 167.487 41.712 L 167.487 76.977 L 167.487 76.977 Q 167.487 79.468 168.538 80.519 L 168.538 80.519 L 168.538 80.519 Q 169.589 81.57 172.002 81.57 L 172.002 81.57 L 177.374 81.57 L 177.374 81.57 Q 179.865 81.57 180.916 80.519 L 180.916 80.519 L 180.916 80.519 Q 181.967 79.468 181.967 76.977 L 181.967 76.977 L 181.967 41.712 L 181.967 41.712 Q 181.967 40.077 183.601 40.077 Z  M 209.447 90.134 L 209.447 90.134 L 202.83 90.134 L 202.83 90.134 Q 201.195 90.134 201.195 88.499 L 201.195 88.499 L 201.195 37.041 L 201.195 37.041 Q 201.195 35.406 202.83 35.406 L 202.83 35.406 L 209.447 35.406 L 209.447 35.406 Q 211.082 35.406 211.082 37.041 L 211.082 37.041 L 211.082 88.499 L 211.082 88.499 Q 211.082 90.134 209.447 90.134 Z  M 220.891 58.994 L 220.891 58.994 L 217.777 58.994 L 217.777 58.994 Q 216.843 58.994 216.492 58.683 L 216.492 58.683 L 216.492 58.683 Q 216.142 58.371 216.142 57.437 L 216.142 57.437 L 216.142 52.066 L 216.142 52.066 Q 216.142 50.431 217.777 50.431 L 217.777 50.431 L 220.891 50.431 L 220.891 50.431 Q 221.747 50.431 221.747 49.574 L 221.747 49.574 L 221.747 42.179 L 221.747 42.179 Q 221.747 40.544 223.46 40.544 L 223.46 40.544 L 229.999 40.544 L 229.999 40.544 Q 231.634 40.544 231.634 42.179 L 231.634 42.179 L 231.634 49.574 L 231.634 49.574 Q 231.634 50.431 232.568 50.431 L 232.568 50.431 L 238.64 50.431 L 238.64 50.431 Q 240.275 50.431 240.275 52.066 L 240.275 52.066 L 240.275 57.437 L 240.275 57.437 Q 240.275 58.294 239.925 58.644 L 239.925 58.644 L 239.925 58.644 Q 239.574 58.994 238.64 58.994 L 238.64 58.994 L 232.568 58.994 L 232.568 58.994 Q 231.634 58.994 231.634 59.85 L 231.634 59.85 L 231.634 77.055 L 231.634 77.055 Q 231.634 79.468 232.724 80.519 L 232.724 80.519 L 232.724 80.519 Q 233.814 81.57 236.305 81.57 L 236.305 81.57 L 239.419 81.57 L 239.419 81.57 Q 241.054 81.57 241.054 83.205 L 241.054 83.205 L 241.054 88.577 L 241.054 88.577 Q 241.054 89.433 240.703 89.783 L 240.703 89.783 L 240.703 89.783 Q 240.353 90.134 239.419 90.134 L 239.419 90.134 L 234.67 90.134 L 234.67 90.134 Q 228.52 90.134 225.134 86.864 L 225.134 86.864 L 225.134 86.864 Q 221.747 83.594 221.747 77.522 L 221.747 77.522 L 221.747 59.85 L 221.747 59.85 Q 221.747 58.994 220.891 58.994 Z  M 255.767 90.134 L 255.767 90.134 L 249.15 90.134 L 249.15 90.134 Q 247.515 90.134 247.515 88.499 L 247.515 88.499 L 247.515 52.066 L 247.515 52.066 Q 247.515 50.431 249.15 50.431 L 249.15 50.431 L 255.767 50.431 L 255.767 50.431 Q 257.402 50.431 257.402 52.066 L 257.402 52.066 L 257.402 54.712 L 257.713 54.712 L 257.713 54.712 Q 258.569 52.611 260.749 51.521 L 260.749 51.521 L 260.749 51.521 Q 262.929 50.431 265.342 50.431 L 265.342 50.431 L 268.145 50.431 L 268.145 50.431 Q 269.702 50.431 269.702 52.066 L 269.702 52.066 L 269.702 57.437 L 269.702 57.437 Q 269.702 58.371 269.352 58.722 L 269.352 58.722 L 269.352 58.722 Q 269.001 59.072 268.145 58.994 L 268.145 58.994 L 262.773 58.994 L 262.773 58.994 Q 257.402 58.994 257.402 65.066 L 257.402 65.066 L 257.402 88.499 L 257.402 88.499 Q 257.402 90.134 255.767 90.134 Z  M 288.619 90.134 L 288.619 90.134 L 286.751 90.134 L 286.751 90.134 Q 280.601 90.134 277.253 86.864 L 277.253 86.864 L 277.253 86.864 Q 273.906 83.594 273.906 77.444 L 273.906 77.444 L 273.906 63.12 L 273.906 63.12 Q 273.906 56.97 277.253 53.7 L 277.253 53.7 L 277.253 53.7 Q 280.601 50.431 286.751 50.431 L 286.751 50.431 L 304.734 50.431 L 304.734 50.431 Q 306.446 50.431 306.446 52.066 L 306.446 52.066 L 306.446 88.499 L 306.446 88.499 Q 306.446 90.134 304.734 90.134 L 304.734 90.134 L 298.194 90.134 L 298.194 90.134 Q 296.56 90.134 296.56 88.499 L 296.56 88.499 L 296.56 85.93 L 296.248 85.93 L 296.248 85.93 Q 295.392 88.032 293.212 89.083 L 293.212 89.083 L 293.212 89.083 Q 291.032 90.134 288.619 90.134 Z  M 296.56 75.654 L 296.56 75.654 L 296.56 59.85 L 296.56 59.85 Q 296.56 58.994 295.625 58.994 L 295.625 58.994 L 288.308 58.994 L 288.308 58.994 Q 285.816 58.994 284.804 60.045 L 284.804 60.045 L 284.804 60.045 Q 283.792 61.096 283.792 63.587 L 283.792 63.587 L 283.792 76.977 L 283.792 76.977 Q 283.792 79.468 284.804 80.519 L 284.804 80.519 L 284.804 80.519 Q 285.816 81.57 288.308 81.57 L 288.308 81.57 L 291.188 81.57 L 291.188 81.57 Q 296.56 81.57 296.56 75.654 Z  M 323.262 100.721 L 323.262 100.721 L 316.644 100.721 L 316.644 100.721 Q 315.01 100.721 315.01 99.164 L 315.01 99.164 L 315.01 52.066 L 315.01 52.066 Q 315.01 50.431 316.644 50.431 L 316.644 50.431 L 323.262 50.431 L 323.262 50.431 Q 324.896 50.431 324.896 52.066 L 324.896 52.066 L 324.896 54.635 L 325.208 54.635 L 325.208 54.635 Q 326.064 52.533 328.244 51.482 L 328.244 51.482 L 328.244 51.482 Q 330.424 50.431 332.837 50.431 L 332.837 50.431 L 336.029 50.431 L 336.029 50.431 Q 342.023 50.431 345.098 53.7 L 345.098 53.7 L 345.098 53.7 Q 348.173 56.97 348.173 63.12 L 348.173 63.12 L 348.173 77.444 L 348.173 77.444 Q 348.173 83.594 345.098 86.864 L 345.098 86.864 L 345.098 86.864 Q 342.023 90.134 336.029 90.134 L 336.029 90.134 L 332.837 90.134 L 332.837 90.134 Q 330.424 90.134 328.244 89.083 L 328.244 89.083 L 328.244 89.083 Q 326.064 88.032 325.208 85.93 L 325.208 85.93 L 324.896 85.93 L 324.896 99.164 L 324.896 99.164 Q 324.896 100.721 323.262 100.721 Z  M 330.268 81.57 L 330.268 81.57 L 333.693 81.57 L 333.693 81.57 Q 336.184 81.57 337.235 80.519 L 337.235 80.519 L 337.235 80.519 Q 338.286 79.468 338.286 76.977 L 338.286 76.977 L 338.286 63.587 L 338.286 63.587 Q 338.286 61.096 337.235 60.045 L 337.235 60.045 L 337.235 60.045 Q 336.184 58.994 333.693 58.994 L 333.693 58.994 L 330.268 58.994 L 330.268 58.994 Q 324.896 58.994 324.896 64.911 L 324.896 64.911 L 324.896 75.654 L 324.896 75.654 Q 324.896 81.57 330.268 81.57 Z  M 364.599 90.134 L 364.599 90.134 L 357.982 90.134 L 357.982 90.134 Q 356.347 90.134 356.347 88.499 L 356.347 88.499 L 356.347 37.041 L 356.347 37.041 Q 356.347 35.406 357.982 35.406 L 357.982 35.406 L 364.599 35.406 L 364.599 35.406 Q 366.234 35.406 366.234 37.041 L 366.234 37.041 L 366.234 88.499 L 366.234 88.499 Q 366.234 90.134 364.599 90.134 Z  M 404.458 90.134 L 404.458 90.134 L 387.253 90.134 L 387.253 90.134 Q 381.103 90.134 377.756 86.864 L 377.756 86.864 L 377.756 86.864 Q 374.408 83.594 374.408 77.444 L 374.408 77.444 L 374.408 63.12 L 374.408 63.12 Q 374.408 56.97 377.756 53.7 L 377.756 53.7 L 377.756 53.7 Q 381.103 50.431 387.253 50.431 L 387.253 50.431 L 393.403 50.431 L 393.403 50.431 Q 399.553 50.431 402.901 53.7 L 402.901 53.7 L 402.901 53.7 Q 406.248 56.97 406.248 63.12 L 406.248 63.12 L 406.248 73.007 L 406.248 73.007 Q 406.248 74.642 404.613 74.642 L 404.613 74.642 L 385.073 74.642 L 385.073 74.642 Q 384.139 74.642 384.139 75.498 L 384.139 75.498 L 384.139 77.211 L 384.139 77.211 Q 384.139 79.624 385.19 80.675 L 385.19 80.675 L 385.19 80.675 Q 386.241 81.726 388.732 81.726 L 388.732 81.726 L 404.458 81.726 L 404.458 81.726 Q 406.092 81.726 406.092 83.439 L 406.092 83.439 L 406.092 88.577 L 406.092 88.577 Q 406.092 89.433 405.742 89.783 L 405.742 89.783 L 405.742 89.783 Q 405.392 90.134 404.458 90.134 Z  M 385.073 68.025 L 385.073 68.025 L 395.661 68.025 L 395.661 68.025 Q 396.517 68.025 396.517 67.168 L 396.517 67.168 L 396.517 63.432 L 396.517 63.432 Q 396.517 60.94 395.505 59.928 L 395.505 59.928 L 395.505 59.928 Q 394.493 58.916 392.002 58.916 L 392.002 58.916 L 388.732 58.916 L 388.732 58.916 Q 386.241 58.916 385.229 59.928 L 385.229 59.928 L 385.229 59.928 Q 384.217 60.94 384.217 63.432 L 384.217 63.432 L 384.217 67.168 L 384.217 67.168 Q 384.217 68.025 385.073 68.025 Z  M 420.027 90.134 L 420.027 90.134 L 412.165 90.134 L 412.165 90.134 Q 410.14 90.134 411.075 88.499 L 411.075 88.499 L 420.884 69.893 L 411.075 52.066 L 411.075 52.066 Q 410.296 50.431 412.009 50.431 L 412.009 50.431 L 419.949 50.431 L 419.949 50.431 Q 421.818 50.431 422.363 52.066 L 422.363 52.066 L 427.267 63.899 L 427.579 63.899 L 431.86 52.066 L 431.86 52.066 Q 432.405 50.431 434.274 50.431 L 434.274 50.431 L 442.058 50.431 L 442.058 50.431 Q 444.082 50.431 443.07 52.066 L 443.07 52.066 L 433.729 69.893 L 443.771 88.499 L 443.771 88.499 Q 444.16 89.199 443.888 89.666 L 443.888 89.666 L 443.888 89.666 Q 443.615 90.134 442.837 90.134 L 442.837 90.134 L 434.818 90.134 L 434.818 90.134 Q 433.184 90.134 432.483 88.499 L 432.483 88.499 L 427.579 76.588 L 427.267 76.588 L 422.363 88.499 L 422.363 88.499 Q 421.818 90.134 420.027 90.134 Z " fill="rgb(255,255,255)"/></g></g></svg>