<?xml version="1.0" encoding="UTF-8" standalone="no"?><!-- Generator: Gravit.io --><svg xmlns="http://www.w3.org/2000/svg" xmlns:xlink="http://www.w3.org/1999/xlink" style="isolation:isolate" viewBox="0 0 50 50" width="50pt" height="50pt"><defs><clipPath id="_clipPath_CZdtIGbJaXbDGFZDJdNi56gYIkhMxqaJ"><rect width="50" height="50"/></clipPath></defs><g clip-path="url(#_clipPath_CZdtIGbJaXbDGFZDJdNi56gYIkhMxqaJ)"><rect width="50" height="50" style="fill:rgb(0,0,0)" fill-opacity="0"/><circle vector-effect="non-scaling-stroke" cx="22.75000000000001" cy="25.00000000000001" r="16.99999999999999" fill="none" stroke-width="2" stroke="rgb(255,255,255)" stroke-linejoin="round" stroke-linecap="round" stroke-miterlimit="10"/><circle vector-effect="non-scaling-stroke" cx="22.750000000000007" cy="24.999999999999993" r="2.833333333333332" fill="none" stroke-width="2" stroke="rgb(255,255,255)" stroke-linejoin="round" stroke-linecap="round" stroke-miterlimit="10"/><circle vector-effect="non-scaling-stroke" cx="15.666666666666675" cy="17.91666666666667" r="2.8333333333333313" fill="none" stroke-width="2" stroke="rgb(255,255,255)" stroke-linejoin="round" stroke-linecap="round" stroke-miterlimit="10"/><circle vector-effect="non-scaling-stroke" cx="15.666666666666675" cy="32.08333333333332" r="2.8333333333333313" fill="none" stroke-width="2" stroke="rgb(255,255,255)" stroke-linejoin="round" stroke-linecap="round" stroke-miterlimit="10"/><circle vector-effect="non-scaling-stroke" cx="29.833333333333346" cy="32.08333333333332" r="2.833333333333332" fill="none" stroke-width="2" stroke="rgb(255,255,255)" stroke-linejoin="round" stroke-linecap="round" stroke-miterlimit="10"/><circle vector-effect="non-scaling-stroke" cx="29.833333333333346" cy="17.91666666666667" r="2.833333333333332" fill="none" stroke-width="2" stroke="rgb(255,255,255)" stroke-linejoin="round" stroke-linecap="round" stroke-miterlimit="10"/><mask id="_mask_biHSynGi9OLxaBUYvnwP9lTP1m3qcRN3" x="-200%" y="-200%" width="400%" height="400%"><rect x="-200%" y="-200%" width="400%" height="400%" style="fill:white;"/><path d=" M 48.25 20.75 L 48.25 20.75 C 48.25 32.508 38.758 42 27 42 L 22.75 42" fill="black" stroke="none"/></mask><path d=" M 48.25 20.75 L 48.25 20.75 C 48.25 32.508 38.758 42 27 42 L 22.75 42" fill="none" mask="url(#_mask_biHSynGi9OLxaBUYvnwP9lTP1m3qcRN3)" vector-effect="non-scaling-stroke" stroke-width="4" stroke="rgb(255,255,255)" stroke-linejoin="round" stroke-linecap="round" stroke-miterlimit="10"/><path d=" M 48.25 20.75 L 48.25 20.75 C 48.25 32.508 38.758 42 27 42 L 22.75 42" fill="none"/></g></svg>