<?xml version="1.0" encoding="UTF-8" standalone="no"?><!-- Generator: Gravit.io --><svg xmlns="http://www.w3.org/2000/svg" xmlns:xlink="http://www.w3.org/1999/xlink" style="isolation:isolate" viewBox="0 0 22 22" width="22pt" height="22pt"><defs><clipPath id="_clipPath_y7RxdttspuHZdPnZtQ9ybfYeul9p9p3M"><rect width="22" height="22"/></clipPath></defs><g clip-path="url(#_clipPath_y7RxdttspuHZdPnZtQ9ybfYeul9p9p3M)"><path d=" M 21.471 8.216 L 6.129 8.216 L 21.12 4.789 C 21.265 4.757 21.391 4.668 21.471 4.543 C 21.551 4.417 21.579 4.265 21.547 4.12 L 21.029 1.65 C 20.972 1.379 20.862 1.123 20.705 0.896 C 20.548 0.669 20.347 0.475 20.114 0.326 C 19.881 0.178 19.621 0.077 19.349 0.03 C 19.077 -0.017 18.798 -0.009 18.529 0.053 L 1.613 3.938 C 1.083 4.063 0.622 4.39 0.329 4.849 C 0.036 5.308 -0.067 5.863 0.043 6.397 L 0.561 8.84 L 0.561 19.92 C 0.561 20.471 0.781 21 1.171 21.391 C 1.561 21.781 2.09 22 2.642 22 L 19.958 22 C 20.51 21.999 21.038 21.78 21.428 21.39 C 21.818 21 22.038 20.471 22.039 19.92 L 22.039 8.784 C 22.039 8.633 21.979 8.489 21.873 8.382 C 21.766 8.276 21.622 8.216 21.471 8.216 L 21.471 8.216 Z  M 5.846 4.131 L 3.712 7.607 L 1.874 8.027 L 4.007 4.551 L 5.846 4.131 Z  M 9.25 3.352 L 7.098 6.828 L 5.256 7.252 L 7.385 3.775 L 9.25 3.352 Z  M 12.654 2.573 L 10.502 6.049 L 8.66 6.472 L 10.789 2.996 L 12.654 2.573 Z  M 16.059 1.793 L 13.906 5.27 L 12.064 5.693 L 14.179 2.217 L 16.059 1.793 Z  M 18.824 4.135 L 19.989 2.244 L 20.337 3.791 L 18.824 4.135 Z  M 18.782 1.158 C 18.954 1.119 19.134 1.129 19.3 1.188 L 17.277 4.49 L 15.438 4.91 L 17.568 1.438 L 18.782 1.158 Z  M 1.866 5.043 L 2.456 4.91 L 1.291 6.802 L 1.151 6.151 C 1.105 5.91 1.153 5.66 1.286 5.453 C 1.419 5.247 1.627 5.1 1.866 5.043 L 1.866 5.043 Z  M 20.904 19.92 C 20.904 20.17 20.804 20.411 20.627 20.588 C 20.45 20.766 20.209 20.865 19.958 20.865 L 2.642 20.865 C 2.391 20.865 2.15 20.766 1.973 20.588 C 1.796 20.411 1.696 20.17 1.696 19.92 L 1.696 9.351 L 20.904 9.351 L 20.904 19.92 Z " fill="rgb(255,255,255)"/></g></svg>