<?xml version="1.0" encoding="UTF-8" standalone="no"?><!-- Generator: Gravit.io --><svg xmlns="http://www.w3.org/2000/svg" xmlns:xlink="http://www.w3.org/1999/xlink" style="isolation:isolate" viewBox="0 0 29 35" width="29pt" height="35pt"><defs><clipPath id="_clipPath_HLwm1VSy23iusPW9JAeiYwBDbiv9TvoB"><rect width="29" height="35"/></clipPath></defs><g clip-path="url(#_clipPath_HLwm1VSy23iusPW9JAeiYwBDbiv9TvoB)"><mask id="_mask_X6myVnqebrSyKlylEsGGrNKCzwjwI0Zl" x="-200%" y="-200%" width="400%" height="400%"><rect x="-200%" y="-200%" width="400%" height="400%" style="fill:white;"/><path d=" M 24.5 16.5 L 4.5 16.5 C 3.4 16.5 2.5 15.6 2.5 14.5 L 2.5 14.5 C 2.5 13.4 3.4 12.5 4.5 12.5 L 24.5 12.5 C 25.6 12.5 26.5 13.4 26.5 14.5 L 26.5 14.5 C 26.5 15.6 25.6 16.5 24.5 16.5 Z " fill="black" stroke="none"/></mask><path d=" M 24.5 16.5 L 4.5 16.5 C 3.4 16.5 2.5 15.6 2.5 14.5 L 2.5 14.5 C 2.5 13.4 3.4 12.5 4.5 12.5 L 24.5 12.5 C 25.6 12.5 26.5 13.4 26.5 14.5 L 26.5 14.5 C 26.5 15.6 25.6 16.5 24.5 16.5 Z " fill="none" mask="url(#_mask_X6myVnqebrSyKlylEsGGrNKCzwjwI0Zl)" vector-effect="non-scaling-stroke" stroke-width="4" stroke="rgb(255,255,255)" stroke-linejoin="round" stroke-linecap="round" stroke-miterlimit="10"/><path d=" M 24.5 16.5 L 4.5 16.5 C 3.4 16.5 2.5 15.6 2.5 14.5 L 2.5 14.5 C 2.5 13.4 3.4 12.5 4.5 12.5 L 24.5 12.5 C 25.6 12.5 26.5 13.4 26.5 14.5 L 26.5 14.5 C 26.5 15.6 25.6 16.5 24.5 16.5 Z " fill="none"/><mask id="_mask_KFYpT4Z5vUukRqmoNIArHopZEpicrpwd" x="-200%" y="-200%" width="400%" height="400%"><rect x="-200%" y="-200%" width="400%" height="400%" style="fill:white;"/><path d=" M 22.5 32.5 L 6.5 32.5 L 4.5 16.5 L 24.5 16.5 L 22.5 32.5 Z " fill="black" stroke="none"/></mask><path d=" M 22.5 32.5 L 6.5 32.5 L 4.5 16.5 L 24.5 16.5 L 22.5 32.5 Z " fill="none" mask="url(#_mask_KFYpT4Z5vUukRqmoNIArHopZEpicrpwd)" vector-effect="non-scaling-stroke" stroke-width="4" stroke="rgb(255,255,255)" stroke-linejoin="round" stroke-linecap="round" stroke-miterlimit="10"/><path d=" M 22.5 32.5 L 6.5 32.5 L 4.5 16.5 L 24.5 16.5 L 22.5 32.5 Z " fill="none"/><mask id="_mask_6Wr9z4aCBu1iiyaP5o1gluoO4316jbwm" x="-200%" y="-200%" width="400%" height="400%"><rect x="-200%" y="-200%" width="400%" height="400%" style="fill:white;"/><line x1="18.5" y1="16.5" x2="17.5" y2="32.5" fill="black" stroke="none"/></mask><line x1="18.5" y1="16.5" x2="17.5" y2="32.5" mask="url(#_mask_6Wr9z4aCBu1iiyaP5o1gluoO4316jbwm)" vector-effect="non-scaling-stroke" stroke-width="4" stroke="rgb(255,255,255)" stroke-linejoin="round" stroke-linecap="round" stroke-miterlimit="10"/><mask id="_mask_9tNBno9XgEPQqP5aUUocnra9dqdjIXXy" x="-200%" y="-200%" width="400%" height="400%"><rect x="-200%" y="-200%" width="400%" height="400%" style="fill:white;"/><line x1="11.5" y1="32.5" x2="10.5" y2="16.5" fill="black" stroke="none"/></mask><line x1="11.5" y1="32.5" x2="10.5" y2="16.5" mask="url(#_mask_9tNBno9XgEPQqP5aUUocnra9dqdjIXXy)" vector-effect="non-scaling-stroke" stroke-width="4" stroke="rgb(255,255,255)" stroke-linejoin="round" stroke-linecap="round" stroke-miterlimit="10"/><mask id="_mask_YGIA45KyNWltG8ikA1IeSlswyxSTxoBq" x="-200%" y="-200%" width="400%" height="400%"><rect x="-200%" y="-200%" width="400%" height="400%" style="fill:white;"/><path d=" M 24.3 12.5 C 24.4 12.2 24.5 11.8 24.5 11.5 C 24.5 10.1 23.6 9 22.3 8.6 C 22.4 8.3 22.5 7.9 22.5 7.5 C 22.5 5.8 21.2 4.5 19.5 4.5 C 18.7 4.5 18 4.8 17.5 5.3 C 17.4 3.7 16.1 2.5 14.5 2.5 C 12.9 2.5 11.6 3.7 11.5 5.3 C 11 4.8 10.3 4.5 9.5 4.5 C 7.8 4.5 6.5 5.8 6.5 7.5 C 6.5 7.9 6.6 8.3 6.7 8.6 C 5.4 9 4.5 10.1 4.5 11.5 C 4.5 11.9 4.6 12.2 4.7 12.5" fill="black" stroke="none"/></mask><path d=" M 24.3 12.5 C 24.4 12.2 24.5 11.8 24.5 11.5 C 24.5 10.1 23.6 9 22.3 8.6 C 22.4 8.3 22.5 7.9 22.5 7.5 C 22.5 5.8 21.2 4.5 19.5 4.5 C 18.7 4.5 18 4.8 17.5 5.3 C 17.4 3.7 16.1 2.5 14.5 2.5 C 12.9 2.5 11.6 3.7 11.5 5.3 C 11 4.8 10.3 4.5 9.5 4.5 C 7.8 4.5 6.5 5.8 6.5 7.5 C 6.5 7.9 6.6 8.3 6.7 8.6 C 5.4 9 4.5 10.1 4.5 11.5 C 4.5 11.9 4.6 12.2 4.7 12.5" fill="none" mask="url(#_mask_YGIA45KyNWltG8ikA1IeSlswyxSTxoBq)" vector-effect="non-scaling-stroke" stroke-width="4" stroke="rgb(255,255,255)" stroke-linejoin="round" stroke-linecap="round" stroke-miterlimit="10"/><path d=" M 24.3 12.5 C 24.4 12.2 24.5 11.8 24.5 11.5 C 24.5 10.1 23.6 9 22.3 8.6 C 22.4 8.3 22.5 7.9 22.5 7.5 C 22.5 5.8 21.2 4.5 19.5 4.5 C 18.7 4.5 18 4.8 17.5 5.3 C 17.4 3.7 16.1 2.5 14.5 2.5 C 12.9 2.5 11.6 3.7 11.5 5.3 C 11 4.8 10.3 4.5 9.5 4.5 C 7.8 4.5 6.5 5.8 6.5 7.5 C 6.5 7.9 6.6 8.3 6.7 8.6 C 5.4 9 4.5 10.1 4.5 11.5 C 4.5 11.9 4.6 12.2 4.7 12.5" fill="none"/></g></svg>