<?xml version="1.0" encoding="UTF-8" standalone="no"?><!-- Generator: Gravit.io --><svg xmlns="http://www.w3.org/2000/svg" xmlns:xlink="http://www.w3.org/1999/xlink" style="isolation:isolate" viewBox="0 0 50 50" width="50pt" height="50pt"><defs><clipPath id="_clipPath_1atBO86CwwQUEvmMtrMxbVvo4G8wFN4N"><rect width="50" height="50"/></clipPath></defs><g clip-path="url(#_clipPath_1atBO86CwwQUEvmMtrMxbVvo4G8wFN4N)"><rect width="50" height="50" style="fill:rgb(0,0,0)" fill-opacity="0"/><rect x="10.2" y="6.5" width="29.6" height="18.5" transform="matrix(1,0,0,1,0,0)" fill="none" vector-effect="non-scaling-stroke" stroke-width="1.015" stroke="rgb(255,255,255)" stroke-linejoin="round" stroke-linecap="round" stroke-miterlimit="2"/><mask id="_mask_qt8Gt0bD76calHIPZ5MPd1o76x0nPgeH" x="-200%" y="-200%" width="400%" height="400%"><rect x="-200%" y="-200%" width="400%" height="400%" style="fill:white;"/><path d=" M 6.5 43.5 L 6.5 39.874 L 6.5 39.874 C 6.5 39.016 7.493 38.32 8.721 38.32 L 11.006 38.32 C 12.233 38.32 13.227 39.013 13.227 39.874 L 13.227 43.5" fill-rule="evenodd" fill="black" stroke="none"/></mask><path d=" M 6.5 43.5 L 6.5 39.874 L 6.5 39.874 C 6.5 39.016 7.493 38.32 8.721 38.32 L 11.006 38.32 C 12.233 38.32 13.227 39.013 13.227 39.874 L 13.227 43.5" fill-rule="evenodd" fill="none" mask="url(#_mask_qt8Gt0bD76calHIPZ5MPd1o76x0nPgeH)" vector-effect="non-scaling-stroke" stroke-width="2.03" stroke="rgb(255,255,255)" stroke-linejoin="round" stroke-linecap="round" stroke-miterlimit="4"/><path d=" M 6.5 43.5 L 6.5 39.874 L 6.5 39.874 C 6.5 39.016 7.493 38.32 8.721 38.32 L 11.006 38.32 C 12.233 38.32 13.227 39.013 13.227 39.874 L 13.227 43.5" fill-rule="evenodd" fill="none"/><mask id="_mask_fEGHn7LE8dJjDcN43aOHAU8yFIxtWVAB" x="-200%" y="-200%" width="400%" height="400%"><rect x="-200%" y="-200%" width="400%" height="400%" style="fill:white;"/><path d=" M 16.591 43.5 L 16.591 39.874 L 16.591 39.874 C 16.591 39.016 17.584 38.32 18.812 38.32 L 21.097 38.32 C 22.324 38.32 23.318 39.013 23.318 39.874 L 23.318 43.5" fill-rule="evenodd" fill="black" stroke="none"/></mask><path d=" M 16.591 43.5 L 16.591 39.874 L 16.591 39.874 C 16.591 39.016 17.584 38.32 18.812 38.32 L 21.097 38.32 C 22.324 38.32 23.318 39.013 23.318 39.874 L 23.318 43.5" fill-rule="evenodd" fill="none" mask="url(#_mask_fEGHn7LE8dJjDcN43aOHAU8yFIxtWVAB)" vector-effect="non-scaling-stroke" stroke-width="2.03" stroke="rgb(255,255,255)" stroke-linejoin="round" stroke-linecap="round" stroke-miterlimit="4"/><path d=" M 16.591 43.5 L 16.591 39.874 L 16.591 39.874 C 16.591 39.016 17.584 38.32 18.812 38.32 L 21.097 38.32 C 22.324 38.32 23.318 39.013 23.318 39.874 L 23.318 43.5" fill-rule="evenodd" fill="none"/><mask id="_mask_oIR1maY3bvSUcr026wnytLZRq7WtDftO" x="-200%" y="-200%" width="400%" height="400%"><rect x="-200%" y="-200%" width="400%" height="400%" style="fill:white;"/><path d=" M 26.682 43.5 L 26.682 39.874 L 26.682 39.874 C 26.682 39.016 27.674 38.32 28.903 38.32 L 31.188 38.32 C 32.415 38.32 33.409 39.013 33.409 39.874 L 33.409 43.5" fill-rule="evenodd" fill="black" stroke="none"/></mask><path d=" M 26.682 43.5 L 26.682 39.874 L 26.682 39.874 C 26.682 39.016 27.674 38.32 28.903 38.32 L 31.188 38.32 C 32.415 38.32 33.409 39.013 33.409 39.874 L 33.409 43.5" fill-rule="evenodd" fill="none" mask="url(#_mask_oIR1maY3bvSUcr026wnytLZRq7WtDftO)" vector-effect="non-scaling-stroke" stroke-width="2.03" stroke="rgb(255,255,255)" stroke-linejoin="round" stroke-linecap="round" stroke-miterlimit="4"/><path d=" M 26.682 43.5 L 26.682 39.874 L 26.682 39.874 C 26.682 39.016 27.674 38.32 28.903 38.32 L 31.188 38.32 C 32.415 38.32 33.409 39.013 33.409 39.874 L 33.409 43.5" fill-rule="evenodd" fill="none"/><mask id="_mask_7Bf9OAbNGKdIi5RqEKuOIru3vQKETNYy" x="-200%" y="-200%" width="400%" height="400%"><rect x="-200%" y="-200%" width="400%" height="400%" style="fill:white;"/><path d=" M 11.68 34.99 L 11.68 31.364 L 11.68 31.364 C 11.68 30.506 12.673 29.81 13.901 29.81 L 16.186 29.81 C 17.413 29.81 18.407 30.503 18.407 31.364 L 18.407 34.99" fill-rule="evenodd" fill="black" stroke="none"/></mask><path d=" M 11.68 34.99 L 11.68 31.364 L 11.68 31.364 C 11.68 30.506 12.673 29.81 13.901 29.81 L 16.186 29.81 C 17.413 29.81 18.407 30.503 18.407 31.364 L 18.407 34.99" fill-rule="evenodd" fill="none" mask="url(#_mask_7Bf9OAbNGKdIi5RqEKuOIru3vQKETNYy)" vector-effect="non-scaling-stroke" stroke-width="2.03" stroke="rgb(255,255,255)" stroke-linejoin="round" stroke-linecap="round" stroke-miterlimit="4"/><path d=" M 11.68 34.99 L 11.68 31.364 L 11.68 31.364 C 11.68 30.506 12.673 29.81 13.901 29.81 L 16.186 29.81 C 17.413 29.81 18.407 30.503 18.407 31.364 L 18.407 34.99" fill-rule="evenodd" fill="none"/><mask id="_mask_1VnKuIdgNHBKIVtonnxKdDZyPE9gAAPv" x="-200%" y="-200%" width="400%" height="400%"><rect x="-200%" y="-200%" width="400%" height="400%" style="fill:white;"/><path d=" M 21.67 34.99 L 21.67 31.364 L 21.67 31.364 C 21.67 30.506 22.663 29.81 23.891 29.81 L 26.176 29.81 C 27.403 29.81 28.397 30.503 28.397 31.364 L 28.397 34.99" fill-rule="evenodd" fill="black" stroke="none"/></mask><path d=" M 21.67 34.99 L 21.67 31.364 L 21.67 31.364 C 21.67 30.506 22.663 29.81 23.891 29.81 L 26.176 29.81 C 27.403 29.81 28.397 30.503 28.397 31.364 L 28.397 34.99" fill-rule="evenodd" fill="none" mask="url(#_mask_1VnKuIdgNHBKIVtonnxKdDZyPE9gAAPv)" vector-effect="non-scaling-stroke" stroke-width="2.03" stroke="rgb(255,255,255)" stroke-linejoin="round" stroke-linecap="round" stroke-miterlimit="4"/><path d=" M 21.67 34.99 L 21.67 31.364 L 21.67 31.364 C 21.67 30.506 22.663 29.81 23.891 29.81 L 26.176 29.81 C 27.403 29.81 28.397 30.503 28.397 31.364 L 28.397 34.99" fill-rule="evenodd" fill="none"/><mask id="_mask_XMYXgEhwBZyTkXRkkb4b8x0lqqZ8dlPh" x="-200%" y="-200%" width="400%" height="400%"><rect x="-200%" y="-200%" width="400%" height="400%" style="fill:white;"/><path d=" M 31.66 34.99 L 31.66 31.364 L 31.66 31.364 C 31.66 30.506 32.653 29.81 33.881 29.81 L 36.166 29.81 C 37.393 29.81 38.387 30.503 38.387 31.364 L 38.387 34.99" fill-rule="evenodd" fill="black" stroke="none"/></mask><path d=" M 31.66 34.99 L 31.66 31.364 L 31.66 31.364 C 31.66 30.506 32.653 29.81 33.881 29.81 L 36.166 29.81 C 37.393 29.81 38.387 30.503 38.387 31.364 L 38.387 34.99" fill-rule="evenodd" fill="none" mask="url(#_mask_XMYXgEhwBZyTkXRkkb4b8x0lqqZ8dlPh)" vector-effect="non-scaling-stroke" stroke-width="2.03" stroke="rgb(255,255,255)" stroke-linejoin="round" stroke-linecap="round" stroke-miterlimit="4"/><path d=" M 31.66 34.99 L 31.66 31.364 L 31.66 31.364 C 31.66 30.506 32.653 29.81 33.881 29.81 L 36.166 29.81 C 37.393 29.81 38.387 30.503 38.387 31.364 L 38.387 34.99" fill-rule="evenodd" fill="none"/><mask id="_mask_HQOvNkeNPIGN6WnqAtrKxPDdelzThYEt" x="-200%" y="-200%" width="400%" height="400%"><rect x="-200%" y="-200%" width="400%" height="400%" style="fill:white;"/><path d=" M 36.773 43.5 L 36.773 39.874 L 36.773 39.874 C 36.773 39.016 37.765 38.32 38.994 38.32 L 41.279 38.32 C 42.505 38.32 43.5 39.013 43.5 39.874 L 43.5 43.5" fill-rule="evenodd" fill="black" stroke="none"/></mask><path d=" M 36.773 43.5 L 36.773 39.874 L 36.773 39.874 C 36.773 39.016 37.765 38.32 38.994 38.32 L 41.279 38.32 C 42.505 38.32 43.5 39.013 43.5 39.874 L 43.5 43.5" fill-rule="evenodd" fill="none" mask="url(#_mask_HQOvNkeNPIGN6WnqAtrKxPDdelzThYEt)" vector-effect="non-scaling-stroke" stroke-width="2.03" stroke="rgb(255,255,255)" stroke-linejoin="round" stroke-linecap="round" stroke-miterlimit="4"/><path d=" M 36.773 43.5 L 36.773 39.874 L 36.773 39.874 C 36.773 39.016 37.765 38.32 38.994 38.32 L 41.279 38.32 C 42.505 38.32 43.5 39.013 43.5 39.874 L 43.5 43.5" fill-rule="evenodd" fill="none"/></g></svg>