<?xml version="1.0" encoding="UTF-8" standalone="no"?><!-- Generator: Gravit.io --><svg xmlns="http://www.w3.org/2000/svg" xmlns:xlink="http://www.w3.org/1999/xlink" style="isolation:isolate" viewBox="0 0 30 22" width="30pt" height="22pt"><defs><clipPath id="_clipPath_p7yUNT9dUwn7UDPEk15jFe1yvniiHdrJ"><rect width="30" height="22"/></clipPath></defs><g clip-path="url(#_clipPath_p7yUNT9dUwn7UDPEk15jFe1yvniiHdrJ)"><g><mask id="_mask_xAgInJmcBNJBpMfug7q5cPaXx07LWDjl" x="-200%" y="-200%" width="400%" height="400%"><rect x="-200%" y="-200%" width="400%" height="400%" style="fill:white;"/><line x1="30" y1="17" x2="0" y2="17" fill="black" stroke="none"/></mask><line x1="30" y1="17" x2="0" y2="17" mask="url(#_mask_xAgInJmcBNJBpMfug7q5cPaXx07LWDjl)" vector-effect="non-scaling-stroke" stroke-width="4" stroke="rgb(255,255,255)" stroke-linejoin="round" stroke-linecap="round" stroke-miterlimit="10"/><mask id="_mask_6RLz3cWOuRvnG6boX5a5kfIF1ya2XiDg" x="-200%" y="-200%" width="400%" height="400%"><rect x="-200%" y="-200%" width="400%" height="400%" style="fill:white;"/><line x1="0" y1="5" x2="30" y2="5" fill="black" stroke="none"/></mask><line x1="0" y1="5" x2="30" y2="5" mask="url(#_mask_6RLz3cWOuRvnG6boX5a5kfIF1ya2XiDg)" vector-effect="non-scaling-stroke" stroke-width="4" stroke="rgb(255,255,255)" stroke-linejoin="round" stroke-linecap="round" stroke-miterlimit="10"/><mask id="_mask_IIX7tyasrHsD9TLEzUKKqFxJixaTTHfE" x="-200%" y="-200%" width="400%" height="400%"><rect x="-200%" y="-200%" width="400%" height="400%" style="fill:white;"/><line x1="5" y1="22" x2="5" y2="17" fill="black" stroke="none"/></mask><line x1="5" y1="22" x2="5" y2="17" mask="url(#_mask_IIX7tyasrHsD9TLEzUKKqFxJixaTTHfE)" vector-effect="non-scaling-stroke" stroke-width="4" stroke="rgb(255,255,255)" stroke-linejoin="round" stroke-linecap="round" stroke-miterlimit="10"/><mask id="_mask_gvArEBQBHAhDp5PieIZAJxSSH5ecd3tO" x="-200%" y="-200%" width="400%" height="400%"><rect x="-200%" y="-200%" width="400%" height="400%" style="fill:white;"/><line x1="10" y1="22" x2="10" y2="17" fill="black" stroke="none"/></mask><line x1="10" y1="22" x2="10" y2="17" mask="url(#_mask_gvArEBQBHAhDp5PieIZAJxSSH5ecd3tO)" vector-effect="non-scaling-stroke" stroke-width="4" stroke="rgb(255,255,255)" stroke-linejoin="round" stroke-linecap="round" stroke-miterlimit="10"/><mask id="_mask_oxCaAiBcOhBGeCpRj8jyo53Sia7r7FK0" x="-200%" y="-200%" width="400%" height="400%"><rect x="-200%" y="-200%" width="400%" height="400%" style="fill:white;"/><line x1="15" y1="22" x2="15" y2="17" fill="black" stroke="none"/></mask><line x1="15" y1="22" x2="15" y2="17" mask="url(#_mask_oxCaAiBcOhBGeCpRj8jyo53Sia7r7FK0)" vector-effect="non-scaling-stroke" stroke-width="4" stroke="rgb(255,255,255)" stroke-linejoin="round" stroke-linecap="round" stroke-miterlimit="10"/><mask id="_mask_wtVzl30GjDAKnUkpRJN2nXY2X3z9Cd0n" x="-200%" y="-200%" width="400%" height="400%"><rect x="-200%" y="-200%" width="400%" height="400%" style="fill:white;"/><line x1="20" y1="22" x2="20" y2="17" fill="black" stroke="none"/></mask><line x1="20" y1="22" x2="20" y2="17" mask="url(#_mask_wtVzl30GjDAKnUkpRJN2nXY2X3z9Cd0n)" vector-effect="non-scaling-stroke" stroke-width="4" stroke="rgb(255,255,255)" stroke-linejoin="round" stroke-linecap="round" stroke-miterlimit="10"/><mask id="_mask_57P4Zhn3ngElkJWddgha4Xcic88eeNyq" x="-200%" y="-200%" width="400%" height="400%"><rect x="-200%" y="-200%" width="400%" height="400%" style="fill:white;"/><line x1="25" y1="22" x2="25" y2="17" fill="black" stroke="none"/></mask><line x1="25" y1="22" x2="25" y2="17" mask="url(#_mask_57P4Zhn3ngElkJWddgha4Xcic88eeNyq)" vector-effect="non-scaling-stroke" stroke-width="4" stroke="rgb(255,255,255)" stroke-linejoin="round" stroke-linecap="round" stroke-miterlimit="10"/><mask id="_mask_lDBtipnsiiifM6mFobKVw3b7vtKPN2yJ" x="-200%" y="-200%" width="400%" height="400%"><rect x="-200%" y="-200%" width="400%" height="400%" style="fill:white;"/><line x1="5" y1="5" x2="5" y2="0" fill="black" stroke="none"/></mask><line x1="5" y1="5" x2="5" y2="0" mask="url(#_mask_lDBtipnsiiifM6mFobKVw3b7vtKPN2yJ)" vector-effect="non-scaling-stroke" stroke-width="4" stroke="rgb(255,255,255)" stroke-linejoin="round" stroke-linecap="round" stroke-miterlimit="10"/><mask id="_mask_etDkERWikSYR4LzPRrJdJUz9drjoiMlK" x="-200%" y="-200%" width="400%" height="400%"><rect x="-200%" y="-200%" width="400%" height="400%" style="fill:white;"/><line x1="10" y1="5" x2="10" y2="0" fill="black" stroke="none"/></mask><line x1="10" y1="5" x2="10" y2="0" mask="url(#_mask_etDkERWikSYR4LzPRrJdJUz9drjoiMlK)" vector-effect="non-scaling-stroke" stroke-width="4" stroke="rgb(255,255,255)" stroke-linejoin="round" stroke-linecap="round" stroke-miterlimit="10"/><mask id="_mask_MMJzQiiiUJs1DT5XZn8kE4n5T2sbbPPe" x="-200%" y="-200%" width="400%" height="400%"><rect x="-200%" y="-200%" width="400%" height="400%" style="fill:white;"/><line x1="15" y1="5" x2="15" y2="0" fill="black" stroke="none"/></mask><line x1="15" y1="5" x2="15" y2="0" mask="url(#_mask_MMJzQiiiUJs1DT5XZn8kE4n5T2sbbPPe)" vector-effect="non-scaling-stroke" stroke-width="4" stroke="rgb(255,255,255)" stroke-linejoin="round" stroke-linecap="round" stroke-miterlimit="10"/><mask id="_mask_skX03Z6KEKtEHXCSsYWwsIzUvoeEOYNu" x="-200%" y="-200%" width="400%" height="400%"><rect x="-200%" y="-200%" width="400%" height="400%" style="fill:white;"/><line x1="20" y1="5" x2="20" y2="0" fill="black" stroke="none"/></mask><line x1="20" y1="5" x2="20" y2="0" mask="url(#_mask_skX03Z6KEKtEHXCSsYWwsIzUvoeEOYNu)" vector-effect="non-scaling-stroke" stroke-width="4" stroke="rgb(255,255,255)" stroke-linejoin="round" stroke-linecap="round" stroke-miterlimit="10"/><mask id="_mask_F9UJ2uH14Z2EfWY2YMa8Z6PCzvJNM9ZP" x="-200%" y="-200%" width="400%" height="400%"><rect x="-200%" y="-200%" width="400%" height="400%" style="fill:white;"/><line x1="25" y1="5" x2="25" y2="0" fill="black" stroke="none"/></mask><line x1="25" y1="5" x2="25" y2="0" mask="url(#_mask_F9UJ2uH14Z2EfWY2YMa8Z6PCzvJNM9ZP)" vector-effect="non-scaling-stroke" stroke-width="4" stroke="rgb(255,255,255)" stroke-linejoin="round" stroke-linecap="round" stroke-miterlimit="10"/><rect x="4" y="-4" width="22" height="30" transform="matrix(0,-1,1,0,4,26)" fill="none" vector-effect="non-scaling-stroke" stroke-width="2" stroke="rgb(255,255,255)" stroke-linejoin="round" stroke-linecap="round" stroke-miterlimit="2"/></g></g></svg>