<?xml version="1.0" encoding="UTF-8" standalone="no"?><!-- Generator: Gravit.io --><svg xmlns="http://www.w3.org/2000/svg" xmlns:xlink="http://www.w3.org/1999/xlink" style="isolation:isolate" viewBox="0 0 28 31" width="28pt" height="31pt"><defs><clipPath id="_clipPath_ioEz7nOys1E06DuHmkxRyY8e8EWDczFn"><rect width="28" height="31"/></clipPath></defs><g clip-path="url(#_clipPath_ioEz7nOys1E06DuHmkxRyY8e8EWDczFn)"><path d=" M 6.417 20.708 C 5.687 20.708 5.068 20.964 4.557 21.474 C 4.047 21.985 3.792 22.604 3.792 23.334 C 3.792 24.063 4.047 24.683 4.557 25.194 C 5.068 25.704 5.688 25.959 6.417 25.959 C 7.134 25.959 7.751 25.704 8.267 25.194 C 8.784 24.684 9.042 24.063 9.042 23.334 C 9.042 22.604 8.784 21.985 8.267 21.474 C 7.75 20.964 7.134 20.708 6.417 20.708 Z " fill="rgb(255,255,255)"/><path d=" M 5.833 15.167 C 5.833 14.365 5.548 13.678 4.977 13.107 C 4.406 12.535 3.719 12.25 2.917 12.25 C 2.115 12.25 1.428 12.536 0.857 13.107 C 0.286 13.678 0 14.365 0 15.167 C 0 15.969 0.285 16.655 0.857 17.227 C 1.428 17.798 2.115 18.084 2.917 18.084 C 3.719 18.084 4.406 17.798 4.977 17.227 C 5.548 16.656 5.833 15.969 5.833 15.167 Z " fill="rgb(255,255,255)"/><path d=" M 22.75 8.459 C 23.151 8.459 23.495 8.316 23.78 8.03 C 24.066 7.745 24.209 7.401 24.209 7 C 24.209 6.599 24.066 6.256 23.78 5.97 C 23.495 5.684 23.151 5.542 22.75 5.542 C 22.349 5.542 22.006 5.685 21.72 5.97 C 21.435 6.256 21.292 6.599 21.292 7 C 21.292 7.401 21.435 7.745 21.72 8.03 C 22.006 8.316 22.349 8.459 22.75 8.459 Z " fill="rgb(255,255,255)"/><path d=" M 6.417 3.792 C 5.53 3.792 4.773 4.105 4.147 4.731 C 3.521 5.356 3.208 6.113 3.208 7 C 3.208 7.888 3.521 8.644 4.147 9.27 C 4.773 9.896 5.53 10.209 6.417 10.209 C 7.304 10.209 8.061 9.896 8.686 9.27 C 9.312 8.644 9.625 7.887 9.625 7 C 9.625 6.113 9.312 5.356 8.686 4.731 C 8.061 4.105 7.304 3.792 6.417 3.792 Z " fill="rgb(255,255,255)"/><path d=" M 27.49 13.927 C 27.15 13.587 26.736 13.417 26.25 13.417 C 25.764 13.417 25.351 13.587 25.011 13.927 C 24.671 14.267 24.501 14.681 24.501 15.167 C 24.501 15.653 24.671 16.067 25.011 16.406 C 25.351 16.747 25.764 16.917 26.25 16.917 C 26.736 16.917 27.15 16.747 27.49 16.406 C 27.83 16.067 28 15.653 28 15.167 C 28 14.681 27.83 14.268 27.49 13.927 Z " fill="rgb(255,255,255)"/><path d=" M 22.75 21.292 C 22.191 21.292 21.711 21.492 21.31 21.894 C 20.909 22.294 20.708 22.775 20.708 23.334 C 20.708 23.893 20.909 24.373 21.31 24.774 C 21.711 25.175 22.191 25.376 22.75 25.376 C 23.309 25.376 23.789 25.175 24.19 24.774 C 24.592 24.373 24.792 23.893 24.792 23.334 C 24.792 22.775 24.592 22.295 24.19 21.894 C 23.789 21.492 23.309 21.292 22.75 21.292 Z " fill="rgb(255,255,255)"/><path d=" M 14.583 24.5 C 13.939 24.5 13.389 24.728 12.933 25.184 C 12.478 25.64 12.25 26.19 12.25 26.834 C 12.25 27.478 12.478 28.028 12.933 28.484 C 13.389 28.939 13.939 29.167 14.583 29.167 C 15.228 29.167 15.777 28.939 16.233 28.484 C 16.689 28.028 16.917 27.478 16.917 26.834 C 16.917 26.19 16.689 25.64 16.233 25.184 C 15.777 24.728 15.228 24.5 14.583 24.5 Z " fill="rgb(255,255,255)"/><path d=" M 14.583 0 C 13.611 0 12.785 0.34 12.104 1.021 C 11.424 1.701 11.083 2.528 11.083 3.5 C 11.083 4.472 11.423 5.299 12.104 5.979 C 12.785 6.66 13.611 7 14.583 7 C 15.556 7 16.382 6.66 17.063 5.979 C 17.743 5.299 18.083 4.472 18.083 3.5 C 18.083 2.528 17.743 1.702 17.063 1.021 C 16.382 0.34 15.556 0 14.583 0 Z " fill="rgb(255,255,255)"/></g></svg>